<?xml version="1.0" standalone="no"?>
<!DOCTYPE svg PUBLIC "-//W3C//DTD SVG 20010904//EN"
 "http://www.w3.org/TR/2001/REC-SVG-20010904/DTD/svg10.dtd">
<svg version="1.0" xmlns="http://www.w3.org/2000/svg"
 width="310.000000pt" height="310.000000pt" viewBox="0 0 310.000000 310.000000"
 preserveAspectRatio="xMidYMid meet">
<metadata>
Created by potrace 1.11, written by Peter Selinger 2001-2013
</metadata>
<g transform="translate(0.000000,310.000000) scale(0.100000,-0.100000)"
fill="#000000" stroke="none">
<path d="M433 2900 c-25 -10 -43 -39 -43 -71 0 -12 21 -64 46 -116 l45 -94
-36 -40 c-20 -22 -40 -51 -45 -65 -16 -41 -13 -1036 3 -1056 6 -9 59 -38 117
-63 58 -26 130 -58 160 -72 136 -62 155 -64 241 -25 24 11 61 26 82 33 21 7
44 21 53 30 8 9 32 87 54 173 22 87 49 173 60 191 25 41 178 122 187 99 3 -7
3 -89 2 -182 -4 -167 -4 -168 -37 -235 -22 -45 -47 -78 -71 -95 -20 -15 -131
-74 -247 -132 -188 -93 -216 -111 -275 -170 -120 -119 -149 -207 -149 -454 l0
-166 970 0 970 0 0 718 c0 827 -2 853 -82 1057 -60 154 -141 278 -258 395
-189 189 -410 298 -680 335 -120 17 -1028 21 -1067 5z m353 -614 c29 -29 34
-41 34 -81 0 -40 -5 -52 -33 -80 -19 -19 -46 -37 -61 -41 -64 -16 -146 52
-146 120 0 39 33 94 63 106 12 5 42 9 66 9 36 1 48 -4 77 -33z"/>
<path d="M412 267 c-20 -21 -22 -34 -22 -123 0 -92 2 -102 23 -122 l23 -22
1115 0 1116 0 21 23 c20 21 22 34 22 123 0 92 -2 102 -23 122 l-23 22 -1115 0
-1116 0 -21 -23z"/>
</g>
</svg>
